<svg width="30" height="30" viewBox="0 0 30 30" fill="none" xmlns="http://www.w3.org/2000/svg">
<mask id="mask0_90_89" style="mask-type:alpha" maskUnits="userSpaceOnUse" x="0" y="0" width="30" height="30">
<rect x="0.0864258" width="29.6296" height="30" rx="5" fill="black"/>
</mask>
<g mask="url(#mask0_90_89)">
<path d="M23.5433 10C23.8931 10 24.1863 9.88021 24.4229 9.64062C24.6596 9.40104 24.7779 9.10417 24.7779 8.75C24.7779 8.39583 24.6596 8.09896 24.4229 7.85938C24.1863 7.61979 23.8931 7.5 23.5433 7.5C23.1935 7.5 22.9003 7.61979 22.6637 7.85938C22.4271 8.09896 22.3088 8.39583 22.3088 8.75C22.3088 9.10417 22.4271 9.40104 22.6637 9.64062C22.9003 9.88021 23.1935 10 23.5433 10ZM23.5433 12.5C22.4939 12.5 21.6143 12.1406 20.9044 11.4219C20.1946 10.7031 19.8396 9.8125 19.8396 8.75C19.8396 7.70833 20.1946 6.82292 20.9044 6.09375C21.6143 5.36458 22.4939 5 23.5433 5C24.5721 5 25.4466 5.36458 26.1668 6.09375C26.8869 6.82292 27.247 7.70833 27.247 8.75C27.247 9.8125 26.8869 10.7031 26.1668 11.4219C25.4466 12.1406 24.5721 12.5 23.5433 12.5ZM14.9013 8.75C15.4157 8.75 15.853 8.57292 16.2131 8.21875C16.5732 7.86458 16.7532 7.41667 16.7532 6.875C16.7532 6.35417 16.5732 5.91146 16.2131 5.54688C15.853 5.18229 15.4157 5 14.9013 5C14.3664 5 13.924 5.18229 13.5742 5.54688C13.2244 5.91146 13.0495 6.35417 13.0495 6.875C13.0495 7.41667 13.2244 7.86458 13.5742 8.21875C13.924 8.57292 14.3664 8.75 14.9013 8.75ZM14.9013 11.25C13.6874 11.25 12.6637 10.8281 11.8304 9.98438C10.997 9.14062 10.5804 8.10417 10.5804 6.875C10.5804 5.66667 10.997 4.63542 11.8304 3.78125C12.6637 2.92708 13.6874 2.5 14.9013 2.5C16.0948 2.5 17.1133 2.92708 17.9569 3.78125C18.8005 4.63542 19.2223 5.66667 19.2223 6.875C19.2223 8.10417 18.8005 9.14062 17.9569 9.98438C17.1133 10.8281 16.0948 11.25 14.9013 11.25ZM9.96307 16.7188C9.96307 17.3438 10.2923 18.0729 10.9507 18.9062C11.1264 19.1286 11.3491 19.3859 11.6186 19.678C13.3768 21.5839 16.4245 21.584 18.1907 19.6854C18.4404 19.4169 18.6505 19.1781 18.8211 18.9688C19.5001 18.1354 19.8396 17.3854 19.8396 16.7188C19.8396 16.2396 19.6853 15.8333 19.3767 15.5C19.068 15.1667 18.6874 15 18.2347 15C17.9466 15 17.674 15.0625 17.4168 15.1875C17.1596 15.3125 16.9487 15.4896 16.7841 15.7188L15.569 17.1797C15.4002 17.3826 15.1499 17.5 14.8859 17.5C14.6219 17.5 14.3716 17.3826 14.2028 17.1797L12.9878 15.7188C12.8232 15.4896 12.6122 15.3125 12.355 15.1875C12.0978 15.0625 11.8355 15 11.568 15C11.0948 15 10.709 15.1667 10.4106 15.5C10.1122 15.8333 9.96307 16.2396 9.96307 16.7188ZM7.49394 16.7188C7.49394 15.6146 7.86431 14.6354 8.60505 13.7813C9.34579 12.9271 10.3334 12.5 11.568 12.5C12.2059 12.5 12.818 12.6458 13.4044 12.9375C14.2916 13.3787 15.4988 13.385 16.3828 12.9375C16.959 12.6458 17.5762 12.5 18.2347 12.5C19.4692 12.5 20.4569 12.9323 21.1976 13.7969C21.9384 14.6615 22.3088 15.6354 22.3088 16.7188C22.3088 17.8229 21.9127 18.9115 21.1205 19.9844C20.3283 21.0573 18.7079 22.7292 16.2594 25C15.4918 25.7065 14.3108 25.7065 13.5433 25C11.0536 22.7083 9.42295 21.0312 8.65134 19.9688C7.87974 18.9062 7.49394 17.8229 7.49394 16.7188ZM6.25937 10C6.60916 10 6.90237 9.88021 7.139 9.64062C7.37562 9.40104 7.49394 9.10417 7.49394 8.75C7.49394 8.39583 7.37562 8.09896 7.139 7.85938C6.90237 7.61979 6.60916 7.5 6.25937 7.5C5.90957 7.5 5.61636 7.61979 5.37974 7.85938C5.14311 8.09896 5.0248 8.39583 5.0248 8.75C5.0248 9.10417 5.14311 9.40104 5.37974 9.64062C5.61636 9.88021 5.90957 10 6.25937 10ZM14.9939 27.5V25H20.4029C22.8191 25 24.7779 23.0412 24.7779 20.625V18.071C24.7779 17.0653 23.9626 16.25 22.9569 16.25H22.3859C21.6956 16.25 21.1359 15.6904 21.1359 15C21.1359 14.3096 21.6956 13.75 22.3859 13.75H24.7779C25.4569 13.75 26.0382 13.9948 26.5217 14.4844C27.0053 14.974 27.247 15.5625 27.247 16.25V22.5C27.247 25.2614 25.0084 27.5 22.247 27.5H14.9939ZM5.0248 20.625C5.0248 23.0412 6.98355 25 9.3998 25H14.9939V27.5H7.55567C4.79424 27.5 2.55566 25.2614 2.55566 22.5V16.25C2.55566 15.5625 2.79229 14.974 3.26554 14.4844C3.73879 13.9948 4.32521 13.75 5.0248 13.75H7.41678C8.10713 13.75 8.66678 14.3096 8.66678 15C8.66678 15.6904 8.10713 16.25 7.41678 16.25H6.84579C5.84008 16.25 5.0248 17.0653 5.0248 18.071V20.625ZM6.25937 12.5C5.20999 12.5 4.33036 12.1406 3.62048 11.4219C2.9106 10.7031 2.55566 9.8125 2.55566 8.75C2.55566 7.70833 2.9106 6.82292 3.62048 6.09375C4.33036 5.36458 5.20999 5 6.25937 5C7.28817 5 8.16266 5.36458 8.88282 6.09375C9.60299 6.82292 9.96307 7.70833 9.96307 8.75C9.96307 9.8125 9.60299 10.7031 8.88282 11.4219C8.16266 12.1406 7.28817 12.5 6.25937 12.5Z" fill="black"/>
</g>
</svg>
