<svg width="30" height="30" viewBox="0 0 30 30" fill="none" xmlns="http://www.w3.org/2000/svg">
<mask id="mask0_89_73" style="mask-type:alpha" maskUnits="userSpaceOnUse" x="0" y="0" width="30" height="30">
<rect x="0.370361" width="29.6296" height="30" rx="14.8148" fill="#D9D9D9"/>
</mask>
<g mask="url(#mask0_89_73)">
<path d="M14.1958 27.5C12.822 27.5 11.6637 26.4759 11.4954 25.1125L11.3999 24.3388C11.3361 23.8222 10.9834 23.3981 10.5402 23.125C10.098 22.8525 9.55251 22.781 9.07454 22.9843L8.41018 23.267C7.13436 23.8097 5.65425 23.3117 4.96603 22.1081L3.96979 20.3658C3.28707 19.1718 3.59196 17.657 4.68343 16.8201L5.62089 16.1013C5.82847 15.9422 5.92598 15.6835 5.92598 15.4219V14.5781C5.92598 14.3165 5.82847 14.0578 5.62088 13.8987L4.68343 13.1799C3.59196 12.343 3.28707 10.8282 3.96979 9.63419L4.96603 7.8919C5.65425 6.68829 7.13436 6.19028 8.41018 6.73304L9.06261 7.01059C9.54797 7.21708 10.1015 7.14324 10.5556 6.875C10.9982 6.61359 11.3352 6.18554 11.3982 5.67538L11.4916 4.91812C11.6621 3.53721 12.8353 2.5 14.2267 2.5H16.1747C17.5484 2.5 18.7067 3.52408 18.8751 4.88752L18.9706 5.66116C19.0344 6.17784 19.3871 6.60186 19.8303 6.875C20.2725 7.14752 20.818 7.21901 21.2959 7.01567L21.9603 6.73304C23.2361 6.19028 24.7162 6.68829 25.4045 7.8919L26.4007 9.63418C27.0834 10.8282 26.7785 12.343 25.687 13.1799L24.7496 13.8987C24.542 14.0578 24.4445 14.3165 24.4445 14.5781V15.4219C24.4445 15.6801 24.5172 15.9469 24.7222 16.104L25.772 16.9089C26.7971 17.6949 27.0835 19.1177 26.4422 20.2392L25.3648 22.1235C24.6821 23.3174 23.2125 23.8094 21.9486 23.2671L21.3068 22.9918C20.8223 22.7839 20.2688 22.8569 19.8149 23.125C19.3723 23.3864 19.0353 23.8145 18.9723 24.3246L18.8788 25.0819C18.7084 26.4628 17.5352 27.5 16.1438 27.5H14.1958ZM13.8034 23.7841C13.8875 24.4781 14.4764 25 15.1754 25C15.8696 25 16.4561 24.4851 16.5459 23.7967L16.6335 23.1255C16.7469 22.2562 17.3928 21.5727 18.1771 21.1811C18.3196 21.11 18.4591 21.034 18.5957 20.9531C18.732 20.8724 18.8654 20.7875 18.996 20.6983C19.7102 20.2103 20.6153 20.0004 21.413 20.3349L22.011 20.5857C22.6597 20.8577 23.4093 20.6016 23.756 19.9896C24.0976 19.3865 23.9421 18.6239 23.3917 18.2027L22.4509 17.4828C22.0017 17.139 21.8421 16.5455 21.9136 15.9844C21.9548 15.6615 21.9754 15.3333 21.9754 15C21.9754 14.6667 21.9548 14.3385 21.9136 14.0156C21.8421 13.4545 22.0017 12.861 22.4509 12.5172L23.3959 11.7941C23.9439 11.3747 24.0987 10.6155 23.7586 10.0151C23.4112 9.40176 22.6579 9.14809 22.0103 9.42628L21.4313 9.67498C20.6273 10.0204 19.7108 9.79834 18.9912 9.30037C18.8622 9.21111 18.7304 9.12661 18.5957 9.04688C18.4588 8.96577 18.3189 8.88959 18.1761 8.81835C17.3937 8.42793 16.752 7.7421 16.6468 6.874L16.5671 6.21588C16.483 5.52193 15.8941 5 15.195 5C14.5008 5 13.9144 5.51494 13.8246 6.20331L13.737 6.87452C13.6236 7.74378 12.9777 8.42734 12.1933 8.81886C12.0509 8.88996 11.9114 8.96597 11.7747 9.04688C11.6384 9.1276 11.505 9.21255 11.3745 9.30173C10.6603 9.78974 9.75516 9.99958 8.95745 9.66509L8.35522 9.41256C7.70897 9.14158 6.96217 9.39669 6.61678 10.0064C6.27452 10.6107 6.43331 11.375 6.98793 11.7929L7.9034 12.4827C8.36348 12.8294 8.53205 13.4289 8.45684 14C8.41569 14.3125 8.39512 14.6458 8.39512 15C8.39512 15.3333 8.41569 15.6563 8.45684 15.9688C8.53217 16.5407 8.3659 17.1412 7.90775 17.4918L6.97457 18.2059C6.42658 18.6253 6.27179 19.3845 6.61189 19.9849C6.9593 20.5982 7.71253 20.8519 8.36018 20.5737L8.93915 20.325C9.74322 19.9796 10.6597 20.2017 11.3793 20.6996C11.5083 20.7889 11.6401 20.8734 11.7747 20.9531C11.9117 21.0342 12.0516 21.1104 12.1944 21.1817C12.9768 21.5721 13.6185 22.2579 13.7237 23.126L13.8034 23.7841ZM15.247 19.375C16.4404 19.375 17.4589 18.9479 18.3025 18.0938C19.1461 17.2396 19.568 16.2083 19.568 15C19.568 13.7917 19.1461 12.7604 18.3025 11.9062C17.4589 11.0521 16.4404 10.625 15.247 10.625C14.033 10.625 13.0093 11.0521 12.176 11.9062C11.3426 12.7604 10.926 13.7917 10.926 15C10.926 16.2083 11.3426 17.2396 12.176 18.0938C13.0093 18.9479 14.033 19.375 15.247 19.375Z" fill="black"/>
</g>
</svg>
